<svg xmlns="http://www.w3.org/2000/svg" width="512" height="512" viewBox="0 0 512 512" role="img" aria-label="EduFlow icon">
  <defs>
    <linearGradient id="g" x1="0" y1="0" x2="1" y2="1">
      <stop offset="0%" stop-color="#2563eb"/>
      <stop offset="100%" stop-color="#14b8a6"/>
    </linearGradient>
  </defs>
  <rect width="512" height="512" rx="108" fill="url(#g)"/>
  <g fill="#ffffff">
    <path d="M120 146c0-10 8-18 18-18h90c33 0 65 11 91 32l9 7v224l-20-15a116 116 0 0 0-80-25h-90c-10 0-18-8-18-18V146zm272 0c0-10-8-18-18-18h-90c-33 0-65 11-91 32l-9 7v224l20-15a116 116 0 0 1 80-25h90c10 0 18-8 18-18V146z"/>
    <circle cx="390" cy="122" r="50"/>
    <path d="M387 94h6v56h-6zM362 119h56v6h-56z" fill="#14b8a6"/>
  </g>
</svg>
